<svg xmlns="http://www.w3.org/2000/svg" viewBox="0 0 800 600">
  <defs>
    <linearGradient id="court" x1="0%" y1="0%" x2="100%" y2="100%">
      <stop offset="0%" stop-color="#12314d"/>
      <stop offset="100%" stop-color="#0a1e32"/>
    </linearGradient>
    <linearGradient id="ball" x1="0%" y1="0%" x2="100%" y2="0%">
      <stop offset="0%" stop-color="#ffe27a"/>
      <stop offset="100%" stop-color="#d8a300"/>
    </linearGradient>
  </defs>
  <rect width="800" height="600" rx="42" fill="url(#court)"/>
  <g fill="none" stroke="rgba(255,255,255,0.2)" stroke-width="8">
    <rect x="120" y="100" width="560" height="400" rx="28"/>
    <line x1="400" y1="100" x2="400" y2="500"/>
    <line x1="120" y1="300" x2="680" y2="300"/>
  </g>
  <circle cx="560" cy="220" r="90" fill="url(#ball)"/>
  <path d="M520 160c30 40 30 140 0 180" fill="none" stroke="#0a1e32" stroke-width="12" stroke-linecap="round"/>
  <path d="M600 160c-30 40-30 140 0 180" fill="none" stroke="#0a1e32" stroke-width="12" stroke-linecap="round"/>
  <g fill="none" stroke="#ffe27a" stroke-width="12" stroke-linecap="round" opacity="0.7">
    <path d="M200 360c50-80 150-120 220-100"/>
    <path d="M230 430c60-70 150-90 210-60"/>
  </g>
  <text x="50%" y="540" text-anchor="middle" font-size="52" font-family="'Poppins',sans-serif" fill="#ffe27a" font-weight="600">Tennis Impact</text>
</svg>
